<?xml version="1.0" encoding="UTF-8" standalone="no"?>
<!DOCTYPE svg PUBLIC "-//W3C//DTD SVG 1.1//EN" "http://www.w3.org/Graphics/SVG/1.1/DTD/svg11.dtd">
<svg width="100%" height="100%" viewBox="0 0 1080 1080" version="1.1" xmlns="http://www.w3.org/2000/svg" xmlns:xlink="http://www.w3.org/1999/xlink" xml:space="preserve" xmlns:serif="http://www.serif.com/" style="fill-rule:evenodd;clip-rule:evenodd;stroke-linejoin:round;stroke-miterlimit:2;">
    <g transform="matrix(1.19169,0,0,1.19169,-161.639,-12.926)">
        <g transform="matrix(726.182,0,0,726.182,90.6148,729.767)">
            <path d="M0.487,-0.36C0.528,-0.351 0.56,-0.331 0.585,-0.3C0.61,-0.268 0.622,-0.232 0.622,-0.191C0.622,-0.132 0.602,-0.086 0.561,-0.052C0.52,-0.017 0.462,-0 0.389,-0L0.062,-0L0.062,-0.702L0.378,-0.702C0.449,-0.702 0.505,-0.686 0.546,-0.653C0.586,-0.62 0.606,-0.576 0.606,-0.52C0.606,-0.479 0.595,-0.444 0.574,-0.417C0.552,-0.39 0.523,-0.371 0.487,-0.36ZM0.233,-0.418L0.345,-0.418C0.373,-0.418 0.395,-0.424 0.41,-0.437C0.425,-0.449 0.432,-0.467 0.432,-0.491C0.432,-0.515 0.425,-0.533 0.41,-0.546C0.395,-0.559 0.373,-0.565 0.345,-0.565L0.233,-0.565L0.233,-0.418ZM0.359,-0.138C0.388,-0.138 0.41,-0.145 0.426,-0.158C0.441,-0.17 0.449,-0.189 0.449,-0.214C0.449,-0.239 0.441,-0.258 0.425,-0.272C0.408,-0.286 0.386,-0.293 0.357,-0.293L0.233,-0.293L0.233,-0.138L0.359,-0.138Z" style="fill-rule:nonzero;"/>
        </g>
        <g transform="matrix(726.182,0,0,726.182,569.168,729.767)">
            <path d="M0.233,-0.479C0.249,-0.505 0.272,-0.526 0.302,-0.542C0.332,-0.558 0.366,-0.566 0.405,-0.566C0.451,-0.566 0.493,-0.554 0.53,-0.531C0.567,-0.508 0.597,-0.474 0.619,-0.431C0.64,-0.388 0.651,-0.337 0.651,-0.28C0.651,-0.223 0.64,-0.172 0.619,-0.129C0.597,-0.085 0.567,-0.051 0.53,-0.028C0.493,-0.004 0.451,0.008 0.405,0.008C0.366,0.008 0.331,0 0.302,-0.016C0.273,-0.031 0.25,-0.052 0.233,-0.078L0.233,-0L0.062,-0L0.062,-0.74L0.233,-0.74L0.233,-0.479ZM0.477,-0.28C0.477,-0.323 0.465,-0.356 0.442,-0.381C0.418,-0.405 0.389,-0.417 0.354,-0.417C0.32,-0.417 0.291,-0.405 0.268,-0.38C0.244,-0.355 0.232,-0.322 0.232,-0.279C0.232,-0.236 0.244,-0.203 0.268,-0.178C0.291,-0.153 0.32,-0.141 0.354,-0.141C0.388,-0.141 0.417,-0.154 0.441,-0.179C0.465,-0.204 0.477,-0.237 0.477,-0.28Z" style="fill-rule:nonzero;"/>
        </g>
    </g>
</svg>
